<?xml version="1.0" encoding="UTF-8"?>
<svg width="1200pt" height="1200pt" version="1.1" viewBox="0 0 1200 1200" xmlns="http://www.w3.org/2000/svg">
 <path d="m1078.6 822.48c-0.97266-33.688-8.0898-66.91-21-98.039-13.559-35.52-25.559-71.16-37.559-107.16-8.8125-33.402-25.805-64.086-49.441-89.281-36.316-35.695-69.93-74.039-100.56-114.72-26.047-35.738-65.688-59.141-109.56-64.68-43.215-5.1719-85.594-15.816-126.12-31.68-26.191-10.34-55.387-10.039-81.359 0.83984-18.961 7.3203-37.559 15.602-56.762 22.441v-0.003906c-39.484 13.949-74.137 38.938-99.84 72-20.16 25.32-40.32 50.762-59.16 77.16-8.1367 11.223-14.266 23.766-18.121 37.082-12 43.68-26.039 87.48-20.879 133.56 2.7617 25.199-7.6797 38.879-28.441 50.641h0.003907c-32.062 17.32-58.438 43.531-75.961 75.48-20.879 39.238-42.238 78.238-60 118.92v-0.003907c-9.5625 23.91-15.977 48.961-19.082 74.52-1.707 12.57 0.61328 25.359 6.6289 36.527 6.0156 11.168 15.418 20.141 26.852 25.633 15.391 8.2617 32.137 13.707 49.441 16.082 36.602 5.2812 73.559 7.9219 110.4 11.16 26.762 2.2812 54.238 5.6406 79.199-7.1992 60-30.84 127.08-21.602 189.96-35.281 2.5195 0 5.2812 1.0781 8.0391 1.5586 55.562 9.6016 110.76 18.961 166.68 27.961 10.918 1.8594 22.078 1.8594 33 0 48-9.1211 96-19.199 144-29.398 24.781-5.125 46.816-19.176 61.918-39.48 21.281-27.922 42.359-55.922 63.238-84 17.645-23.039 26.34-51.684 24.48-80.641zm-529.56 181.8c-14.672 2.25-29.453 3.7305-44.281 4.4375-42.633 0.95312-84.699 9.9961-123.96 26.641-15.656 5.043-31.715 8.7383-48 11.039l-0.60156-3.2383c-46.078-4.0781-92.281-7.1992-138.24-12-40.32-4.4414-58.078-30.121-50.641-69.719 6.2383-33 74.039-168 97.441-192h-0.003906c11.504-12.105 24.484-22.707 38.641-31.562 27.555-16.879 53.359-36.453 77.039-58.438 4.1992-3.7188 8.7617-6.9609 12.961-10.559v-0.003906c10.828-10.773 24.805-17.824 39.906-20.133 15.098-2.3086 30.543 0.24609 44.094 7.293 24 12 49.32 21.359 72 35.281 40.535 23.637 70.789 61.551 84.84 106.32 8.7617 28.078 15.719 56.879 22.559 85.68h0.003907c1.7266 9.0898 2.25 18.371 1.5586 27.602-1.1992 55.918-29.16 86.398-85.32 93.359zm471-101.16c-17.039 19.441-31.559 41.16-46.922 62.039-12.184 17.777-30.672 30.262-51.719 34.918-46.199 9.6016-92.281 19.199-138.6 28.199l0.003907 0.003906c-8.1758 1.6758-16.582 1.9219-24.84 0.71875-40.078-6.4805-80.16-13.68-120-21-3.9414-1.3086-7.6914-3.125-11.16-5.3984 43.078-46.078 40.559-99.84 28.32-154.8h-0.003906c-5.0664-21.582-11.477-42.82-19.199-63.602-17.602-50.48-53.016-92.805-99.598-119.04-27.688-14.879-56.305-27.945-85.68-39.121-13.676-6.0352-28.75-8.1875-43.57-6.2188-14.816 1.9688-28.805 7.9805-40.43 17.379-12 8.8789-24 17.398-40.199 29.16 0-12-1.1992-18.48-1.0781-25.559 0-40.32 13.078-78.238 24-116.52h-0.003907c0.93359-3.6016 2.5625-6.9883 4.8008-9.9609 28.078-36 54.121-73.078 85.199-105.84 16.68-18.121 41.758-29.16 64.68-41.281 16.078-8.6406 34.32-13.559 51.359-20.879 23.719-11.34 51.16-11.949 75.359-1.6797 39.504 16.02 81.078 26.363 123.48 30.719 37.418 4.2812 71.367 23.93 93.723 54.242 31.77 42.16 66.625 81.91 104.28 118.92 19.398 21.527 33.312 47.422 40.562 75.48 12 36.84 25.801 73.199 38.52 109.92 5.0391 14.879 10.32 29.762 14.281 44.879 11.879 45.121 6.8359 87.121-25.562 124.32z"/>
 <path d="m870.12 542.04c-22.344-16.559-41.254-37.305-55.68-61.078-14.082-23.535-39.305-38.141-66.723-38.641-15.688-0.19531-31.078-4.3203-44.758-12-28.922-20.039-61.559-28.922-94.078-39.602h-0.003906c-17.551-6.7422-37.145-5.6953-53.879 2.8828-26.52 14.762-51.719 32.039-77.398 48-3.2617 1.8086-6.0586 4.3594-8.1602 7.4375-2.3984 6.1562-4.2852 12.496-5.6406 18.961 28.801-18.602 53.039-33.359 76.32-49.559 16.559-12 34.078-21.84 54-16.199 30 8.5195 61.922 12.719 87.84 32.641v-0.003906c18.539 14.34 41.242 22.258 64.68 22.562 11.633-0.17578 23.094 2.7891 33.188 8.5742s18.441 14.18 24.172 24.305c4.9336 8.9219 10.809 17.289 17.52 24.961 21.359 21.121 43.801 41.16 65.879 61.559l7.4414-7.1992c-7.2344-10.055-15.523-19.305-24.719-27.602z"/>
 <path d="m923.04 636c-7.9219 9.7188 0 17.281 3.2383 25.32 16.199 45.961 38.398 90.48 33.238 141.6h0.003906c0.46094 5.7969 2.0078 11.453 4.5586 16.68 16.203-54.121-9.957-158.52-41.039-183.6z"/>
 <path d="m936 909.72c24.961-12 27.84-16.441 22.68-40.078z"/>
 <path d="m364.8 724.92c-12 9.3594-26.762 16.078-39.961 24-11.895 6.8125-23.281 14.473-34.078 22.918-13.863 11.762-27.082 24.258-39.602 37.441-2.1602 2.1602-0.96094 7.6797-1.8008 18.359 9.3594-9.3594 13.922-14.52 19.078-18.84h0.003906c9.9961-9.1797 20.535-17.758 31.559-25.68 25.078-16.801 51.359-31.922 76.199-49.078v-0.003907c9.1445-7.5039 17.223-16.223 24-25.918 2.3984-2.8789 1.0781-8.6406 1.9219-19.441-11.789 12.73-24.25 24.828-37.32 36.242z"/>
 <path d="m222.72 914.52c17.762-19.68 12-43.441 24.719-66.961-24.238 14.52-30.359 33.602-24.719 66.961z"/>
</svg>
